<mxfile host="app.diagrams.net" agent="Mozilla/5.0 (Windows NT 10.0; Win64; x64) AppleWebKit/537.36 (KHTML, like Gecko) Chrome/136.0.0.0 Safari/537.36 Edg/136.0.0.0" version="27.0.9">
  <diagram name="Trang-1" id="YQufO6UNZ52iV-K-rRK8">
    <mxGraphModel dx="837" dy="431" grid="1" gridSize="10" guides="1" tooltips="1" connect="1" arrows="1" fold="1" page="1" pageScale="1" pageWidth="827" pageHeight="1169" math="0" shadow="0">
      <root>
        <mxCell id="0" />
        <mxCell id="1" parent="0" />
        <mxCell id="CkPlOE1ukzoksZlgn2b4-1" value=":User" style="shape=umlActor;verticalLabelPosition=bottom;verticalAlign=top;html=1;outlineConnect=0;" vertex="1" parent="1">
          <mxGeometry x="300" y="196.25" width="30" height="60" as="geometry" />
        </mxCell>
        <mxCell id="CkPlOE1ukzoksZlgn2b4-2" value="" style="endArrow=none;dashed=1;html=1;rounded=0;" edge="1" parent="1">
          <mxGeometry width="50" height="50" relative="1" as="geometry">
            <mxPoint x="315" y="627.5" as="sourcePoint" />
            <mxPoint x="315" y="287.5" as="targetPoint" />
          </mxGeometry>
        </mxCell>
        <mxCell id="CkPlOE1ukzoksZlgn2b4-3" value="" style="shape=umlBoundary;whiteSpace=wrap;html=1;" vertex="1" parent="1">
          <mxGeometry x="430" y="197.5" width="90" height="65" as="geometry" />
        </mxCell>
        <mxCell id="CkPlOE1ukzoksZlgn2b4-4" value="" style="ellipse;shape=umlControl;whiteSpace=wrap;html=1;" vertex="1" parent="1">
          <mxGeometry x="593" y="190" width="81" height="72.5" as="geometry" />
        </mxCell>
        <mxCell id="CkPlOE1ukzoksZlgn2b4-5" value="" style="ellipse;shape=umlEntity;whiteSpace=wrap;html=1;" vertex="1" parent="1">
          <mxGeometry x="770" y="193.75" width="80" height="65" as="geometry" />
        </mxCell>
        <mxCell id="CkPlOE1ukzoksZlgn2b4-6" value="" style="endArrow=none;dashed=1;html=1;rounded=0;" edge="1" parent="1" source="CkPlOE1ukzoksZlgn2b4-15">
          <mxGeometry width="50" height="50" relative="1" as="geometry">
            <mxPoint x="474.76" y="627.5" as="sourcePoint" />
            <mxPoint x="475" y="287.5" as="targetPoint" />
          </mxGeometry>
        </mxCell>
        <mxCell id="CkPlOE1ukzoksZlgn2b4-7" value="" style="endArrow=none;dashed=1;html=1;rounded=0;" edge="1" parent="1" source="CkPlOE1ukzoksZlgn2b4-17">
          <mxGeometry width="50" height="50" relative="1" as="geometry">
            <mxPoint x="633.5799999999999" y="627.5" as="sourcePoint" />
            <mxPoint x="634" y="287.5" as="targetPoint" />
          </mxGeometry>
        </mxCell>
        <mxCell id="CkPlOE1ukzoksZlgn2b4-8" value="" style="endArrow=none;dashed=1;html=1;rounded=0;" edge="1" parent="1" source="CkPlOE1ukzoksZlgn2b4-22">
          <mxGeometry width="50" height="50" relative="1" as="geometry">
            <mxPoint x="810" y="627.5" as="sourcePoint" />
            <mxPoint x="810" y="287.5" as="targetPoint" />
          </mxGeometry>
        </mxCell>
        <mxCell id="CkPlOE1ukzoksZlgn2b4-9" value="&lt;font style=&quot;font-size: 10px;&quot;&gt;1. Nhấn nút đăng ký&lt;/font&gt;" style="html=1;verticalAlign=bottom;startArrow=none;startFill=0;endArrow=open;curved=0;rounded=0;endFill=0;" edge="1" parent="1">
          <mxGeometry width="60" relative="1" as="geometry">
            <mxPoint x="320" y="317.5" as="sourcePoint" />
            <mxPoint x="470" y="317.5" as="targetPoint" />
          </mxGeometry>
        </mxCell>
        <mxCell id="CkPlOE1ukzoksZlgn2b4-10" value="" style="html=1;points=[[0,0,0,0,5],[0,1,0,0,-5],[1,0,0,0,5],[1,1,0,0,-5]];perimeter=orthogonalPerimeter;outlineConnect=0;targetShapes=umlLifeline;portConstraint=eastwest;newEdgeStyle={&quot;curved&quot;:0,&quot;rounded&quot;:0};" vertex="1" parent="1">
          <mxGeometry x="310" y="310" width="10" height="150" as="geometry" />
        </mxCell>
        <mxCell id="CkPlOE1ukzoksZlgn2b4-11" value="" style="html=1;verticalAlign=bottom;startArrow=none;startFill=0;endArrow=block;curved=0;rounded=0;endFill=1;entryX=0;entryY=0;entryDx=0;entryDy=5;entryPerimeter=0;" edge="1" parent="1" source="CkPlOE1ukzoksZlgn2b4-15" target="CkPlOE1ukzoksZlgn2b4-17">
          <mxGeometry width="60" relative="1" as="geometry">
            <mxPoint x="480" y="402.16" as="sourcePoint" />
            <mxPoint x="620" y="410" as="targetPoint" />
          </mxGeometry>
        </mxCell>
        <mxCell id="CkPlOE1ukzoksZlgn2b4-13" value="&lt;span style=&quot;font-size: 10px;&quot;&gt;5.register()&lt;/span&gt;" style="text;html=1;align=center;verticalAlign=middle;resizable=0;points=[];autosize=1;strokeColor=none;fillColor=none;" vertex="1" parent="1">
          <mxGeometry x="515" y="377.5" width="70" height="30" as="geometry" />
        </mxCell>
        <mxCell id="CkPlOE1ukzoksZlgn2b4-14" value="" style="endArrow=none;dashed=1;html=1;rounded=0;" edge="1" parent="1" target="CkPlOE1ukzoksZlgn2b4-15">
          <mxGeometry width="50" height="50" relative="1" as="geometry">
            <mxPoint x="474.76" y="627.5" as="sourcePoint" />
            <mxPoint x="474.76" y="277.5" as="targetPoint" />
          </mxGeometry>
        </mxCell>
        <mxCell id="CkPlOE1ukzoksZlgn2b4-15" value="" style="html=1;points=[[0,0,0,0,5],[0,1,0,0,-5],[1,0,0,0,5],[1,1,0,0,-5]];perimeter=orthogonalPerimeter;outlineConnect=0;targetShapes=umlLifeline;portConstraint=eastwest;newEdgeStyle={&quot;curved&quot;:0,&quot;rounded&quot;:0};" vertex="1" parent="1">
          <mxGeometry x="470" y="390" width="10" height="67.5" as="geometry" />
        </mxCell>
        <mxCell id="CkPlOE1ukzoksZlgn2b4-16" value="" style="endArrow=none;dashed=1;html=1;rounded=0;" edge="1" parent="1" target="CkPlOE1ukzoksZlgn2b4-17">
          <mxGeometry width="50" height="50" relative="1" as="geometry">
            <mxPoint x="633.5799999999999" y="627.5" as="sourcePoint" />
            <mxPoint x="633.5799999999999" y="277.5" as="targetPoint" />
          </mxGeometry>
        </mxCell>
        <mxCell id="CkPlOE1ukzoksZlgn2b4-17" value="" style="html=1;points=[[0,0,0,0,5],[0,1,0,0,-5],[1,0,0,0,5],[1,1,0,0,-5]];perimeter=orthogonalPerimeter;outlineConnect=0;targetShapes=umlLifeline;portConstraint=eastwest;newEdgeStyle={&quot;curved&quot;:0,&quot;rounded&quot;:0};" vertex="1" parent="1">
          <mxGeometry x="629" y="400" width="10" height="40" as="geometry" />
        </mxCell>
        <mxCell id="CkPlOE1ukzoksZlgn2b4-18" value="" style="html=1;verticalAlign=bottom;startArrow=none;startFill=0;endArrow=block;curved=0;rounded=0;endFill=1;" edge="1" parent="1">
          <mxGeometry width="60" relative="1" as="geometry">
            <mxPoint x="639" y="410" as="sourcePoint" />
            <mxPoint x="805" y="410" as="targetPoint" />
          </mxGeometry>
        </mxCell>
        <mxCell id="CkPlOE1ukzoksZlgn2b4-19" value="&lt;span style=&quot;font-size: 10px;&quot;&gt;6.addUser()&lt;/span&gt;" style="text;html=1;align=center;verticalAlign=middle;resizable=0;points=[];autosize=1;strokeColor=none;fillColor=none;" vertex="1" parent="1">
          <mxGeometry x="685" y="387.5" width="80" height="30" as="geometry" />
        </mxCell>
        <mxCell id="CkPlOE1ukzoksZlgn2b4-20" value="&lt;font style=&quot;font-size: 10px;&quot;&gt;7. thông báo&lt;/font&gt;" style="html=1;verticalAlign=bottom;endArrow=open;dashed=1;endSize=8;curved=0;rounded=0;" edge="1" parent="1">
          <mxGeometry x="-0.0588" relative="1" as="geometry">
            <mxPoint x="810" y="430" as="sourcePoint" />
            <mxPoint x="640" y="430" as="targetPoint" />
            <mxPoint as="offset" />
          </mxGeometry>
        </mxCell>
        <mxCell id="CkPlOE1ukzoksZlgn2b4-21" value="" style="endArrow=none;dashed=1;html=1;rounded=0;" edge="1" parent="1" target="CkPlOE1ukzoksZlgn2b4-22">
          <mxGeometry width="50" height="50" relative="1" as="geometry">
            <mxPoint x="810" y="627.5" as="sourcePoint" />
            <mxPoint x="810" y="277.5" as="targetPoint" />
          </mxGeometry>
        </mxCell>
        <mxCell id="CkPlOE1ukzoksZlgn2b4-22" value="" style="html=1;points=[[0,0,0,0,5],[0,1,0,0,-5],[1,0,0,0,5],[1,1,0,0,-5]];perimeter=orthogonalPerimeter;outlineConnect=0;targetShapes=umlLifeline;portConstraint=eastwest;newEdgeStyle={&quot;curved&quot;:0,&quot;rounded&quot;:0};" vertex="1" parent="1">
          <mxGeometry x="805" y="410" width="10" height="20" as="geometry" />
        </mxCell>
        <mxCell id="CkPlOE1ukzoksZlgn2b4-23" value="" style="html=1;verticalAlign=bottom;endArrow=open;dashed=1;endSize=8;curved=0;rounded=0;" edge="1" parent="1">
          <mxGeometry x="0.6" y="43" relative="1" as="geometry">
            <mxPoint x="630" y="440" as="sourcePoint" />
            <mxPoint x="480" y="440" as="targetPoint" />
            <mxPoint as="offset" />
          </mxGeometry>
        </mxCell>
        <mxCell id="CkPlOE1ukzoksZlgn2b4-24" value="&lt;span style=&quot;font-size: 10px;&quot;&gt;9. thông báo&lt;/span&gt;" style="html=1;verticalAlign=bottom;endArrow=open;dashed=1;endSize=8;curved=0;rounded=0;" edge="1" parent="1">
          <mxGeometry relative="1" as="geometry">
            <mxPoint x="470" y="457.5" as="sourcePoint" />
            <mxPoint x="320" y="457.5" as="targetPoint" />
          </mxGeometry>
        </mxCell>
        <mxCell id="CkPlOE1ukzoksZlgn2b4-25" value=":LoginView" style="text;html=1;align=center;verticalAlign=middle;whiteSpace=wrap;rounded=0;" vertex="1" parent="1">
          <mxGeometry x="450" y="258.75" width="60" height="30" as="geometry" />
        </mxCell>
        <mxCell id="CkPlOE1ukzoksZlgn2b4-26" value=":UserController" style="text;html=1;align=center;verticalAlign=middle;whiteSpace=wrap;rounded=0;" vertex="1" parent="1">
          <mxGeometry x="604" y="258.75" width="60" height="30" as="geometry" />
        </mxCell>
        <mxCell id="CkPlOE1ukzoksZlgn2b4-27" value=":UserModel" style="text;html=1;align=center;verticalAlign=middle;whiteSpace=wrap;rounded=0;" vertex="1" parent="1">
          <mxGeometry x="780" y="258.75" width="60" height="30" as="geometry" />
        </mxCell>
        <mxCell id="CkPlOE1ukzoksZlgn2b4-29" value="" style="html=1;verticalAlign=bottom;endArrow=open;dashed=1;endSize=8;curved=0;rounded=0;" edge="1" parent="1">
          <mxGeometry relative="1" as="geometry">
            <mxPoint x="470" y="342" as="sourcePoint" />
            <mxPoint x="320" y="342" as="targetPoint" />
          </mxGeometry>
        </mxCell>
        <mxCell id="CkPlOE1ukzoksZlgn2b4-31" value="&lt;font style=&quot;font-size: 10px;&quot;&gt;2. Chuyển sang giao diện đăng ký&lt;/font&gt;" style="text;html=1;align=center;verticalAlign=middle;resizable=0;points=[];autosize=1;strokeColor=none;fillColor=none;" vertex="1" parent="1">
          <mxGeometry x="310" y="317.5" width="170" height="30" as="geometry" />
        </mxCell>
        <mxCell id="CkPlOE1ukzoksZlgn2b4-32" value="" style="html=1;verticalAlign=bottom;startArrow=none;startFill=0;endArrow=open;curved=0;rounded=0;endFill=0;" edge="1" parent="1">
          <mxGeometry width="60" relative="1" as="geometry">
            <mxPoint x="317.5" y="370" as="sourcePoint" />
            <mxPoint x="472.5" y="370" as="targetPoint" />
            <Array as="points">
              <mxPoint x="392.5" y="370" />
            </Array>
          </mxGeometry>
        </mxCell>
        <mxCell id="CkPlOE1ukzoksZlgn2b4-34" value="&lt;font style=&quot;font-size: 10px;&quot;&gt;3. Nhập thông tin tài khoản&lt;/font&gt;" style="text;html=1;align=center;verticalAlign=middle;resizable=0;points=[];autosize=1;strokeColor=none;fillColor=none;" vertex="1" parent="1">
          <mxGeometry x="325" y="340" width="140" height="30" as="geometry" />
        </mxCell>
        <mxCell id="CkPlOE1ukzoksZlgn2b4-35" value="" style="html=1;verticalAlign=bottom;startArrow=none;startFill=0;endArrow=open;curved=0;rounded=0;endFill=0;" edge="1" parent="1">
          <mxGeometry width="60" relative="1" as="geometry">
            <mxPoint x="316.5" y="390" as="sourcePoint" />
            <mxPoint x="471.5" y="390.16" as="targetPoint" />
          </mxGeometry>
        </mxCell>
        <mxCell id="CkPlOE1ukzoksZlgn2b4-36" value="&lt;font style=&quot;font-size: 10px;&quot;&gt;4. Nhấn nút đăng ký&lt;/font&gt;" style="edgeLabel;html=1;align=center;verticalAlign=middle;resizable=0;points=[];" vertex="1" connectable="0" parent="CkPlOE1ukzoksZlgn2b4-35">
          <mxGeometry x="-0.4361" y="3" relative="1" as="geometry">
            <mxPoint x="36" y="-7" as="offset" />
          </mxGeometry>
        </mxCell>
        <mxCell id="CkPlOE1ukzoksZlgn2b4-39" value="&lt;font style=&quot;font-size: 10px;&quot;&gt;&amp;nbsp;8. thông báo&lt;/font&gt;" style="text;html=1;align=center;verticalAlign=middle;resizable=0;points=[];autosize=1;strokeColor=none;fillColor=none;" vertex="1" parent="1">
          <mxGeometry x="510" y="417.5" width="80" height="30" as="geometry" />
        </mxCell>
      </root>
    </mxGraphModel>
  </diagram>
</mxfile>
